<svg xmlns="http://www.w3.org/2000/svg" viewBox="0 0 800 600" width="100%" height="600" fill="none">
  <style>
    /* ===== TYPING ANIMATION ===== */
    @keyframes type-left {
      0%, 100% { transform: rotate(0deg); }
      25% { transform: rotate(-4deg); }
      75% { transform: rotate(2deg); }
    }
    @keyframes type-right {
      0%, 100% { transform: rotate(0deg); }
      30% { transform: rotate(3deg); }
      70% { transform: rotate(-3deg); }
    }
    .hand-l {
      animation: type-left 0.28s cubic-bezier(0.4, 0, 0.2, 1) infinite;
      transform-origin: 390px 395px;
    }
    .hand-r {
      animation: type-right 0.22s cubic-bezier(0.4, 0, 0.2, 1) infinite;
      transform-origin: 430px 395px;
    }

    /* ===== HEAD BOB ===== */
    @keyframes head-bob {
      0%, 100% { transform: translateY(0); }
      50% { transform: translateY(2px); }
    }
    .head-group {
      animation: head-bob 1.8s cubic-bezier(0.37, 0, 0.63, 1) infinite;
    }

    /* ===== MONITOR GLOW PULSE ===== */
    @keyframes glow-pulse {
      0%, 100% { opacity: 0.03; }
      50% { opacity: 0.1; }
    }
    .monitor-glow {
      animation: glow-pulse 3s cubic-bezier(0.37, 0, 0.63, 1) infinite;
    }
    .monitor-glow-2 {
      animation: glow-pulse 3s cubic-bezier(0.37, 0, 0.63, 1) infinite;
      animation-delay: 1.5s;
    }

    /* ===== CODE SCROLL ===== */
    @keyframes scroll-code-1 {
      0% { transform: translateY(0); }
      100% { transform: translateY(-120px); }
    }
    @keyframes scroll-code-2 {
      0% { transform: translateY(0); }
      100% { transform: translateY(-90px); }
    }
    .code-scroll-1 {
      animation: scroll-code-1 8s linear infinite;
    }
    .code-scroll-2 {
      animation: scroll-code-2 6s linear infinite;
    }

    /* ===== CURSOR BLINK ===== */
    @keyframes blink {
      0%, 49% { opacity: 1; }
      50%, 100% { opacity: 0; }
    }
    .cursor {
      animation: blink 1s steps(1) infinite;
    }

    /* ===== GEAR ROTATION ===== */
    @keyframes spin-gear {
      0% { transform: rotate(0deg); }
      100% { transform: rotate(360deg); }
    }
    .gear-icon {
      animation: spin-gear 12s linear infinite;
      transform-origin: 680px 120px;
    }

    /* ===== GEAR FLOAT ===== */
    @keyframes gear-float {
      0%, 100% { transform: translateY(0); }
      50% { transform: translateY(-8px); }
    }
    .gear-group {
      animation: gear-float 4s cubic-bezier(0.37, 0, 0.63, 1) infinite;
    }

    /* ===== BREATHING GLOW ON FACE FROM SCREEN ===== */
    @keyframes face-glow {
      0%, 100% { opacity: 0.04; }
      50% { opacity: 0.12; }
    }
    .face-screen-glow {
      animation: face-glow 3s cubic-bezier(0.37, 0, 0.63, 1) infinite;
    }

    /* ===== REDUCED MOTION ===== */
    @media (prefers-reduced-motion: reduce) {
      .hand-l, .hand-r, .head-group, .monitor-glow, .monitor-glow-2,
      .code-scroll-1, .code-scroll-2, .cursor, .gear-icon, .gear-group,
      .face-screen-glow {
        animation: none !important;
      }
      .cursor { opacity: 1; }
    }
  </style>

  <defs>
    <!-- Clip paths for monitor screens -->
    <clipPath id="screen-1-clip">
      <rect x="148" y="145" width="225" height="170" rx="4"/>
    </clipPath>
    <clipPath id="screen-2-clip">
      <rect x="398" y="170" width="195" height="145" rx="4"/>
    </clipPath>
  </defs>

  <!-- ===== BACKGROUND ===== -->
  <rect width="800" height="600" fill="#1a1d2e"/>

  <!-- Subtle wall line -->
  <line x1="0" y1="480" x2="800" y2="480" stroke="#232740" stroke-width="2"/>

  <!-- ===== FLOOR ===== -->
  <rect x="0" y="480" width="800" height="120" fill="#151828"/>

  <!-- ===== DESK ===== -->
  <!-- Desk top surface -->
  <rect x="100" y="420" width="520" height="14" rx="3" fill="#2a2d42"/>
  <rect x="100" y="420" width="520" height="3" rx="1" fill="#323660"/>

  <!-- Desk left legs -->
  <rect x="120" y="434" width="12" height="80" fill="#24273c"/>
  <rect x="180" y="434" width="12" height="80" fill="#24273c"/>

  <!-- Desk right legs -->
  <rect x="530" y="434" width="12" height="80" fill="#24273c"/>
  <rect x="590" y="434" width="12" height="80" fill="#24273c"/>

  <!-- Desk drawer panel left -->
  <rect x="115" y="436" width="82" height="58" rx="3" fill="#222540"/>
  <rect x="140" y="452" width="32" height="3" rx="1.5" fill="#3a3d58"/>
  <rect x="140" y="470" width="32" height="3" rx="1.5" fill="#3a3d58"/>

  <!-- ===== MONITOR 1 (LEFT - LARGER) ===== -->
  <g>
    <!-- Monitor stand -->
    <rect x="240" y="330" width="16" height="90" fill="#2a2d42"/>
    <rect x="220" y="410" width="56" height="8" rx="3" fill="#2a2d42"/>

    <!-- Monitor body -->
    <rect x="140" y="138" width="240" height="185" rx="8" fill="#1e2030"/>
    <!-- Monitor bezel highlight -->
    <rect x="140" y="138" width="240" height="4" rx="2" fill="#2e3150"/>

    <!-- Screen -->
    <rect x="148" y="145" width="225" height="170" rx="4" fill="#0c1018"/>

    <!-- Screen glow overlay -->
    <rect x="148" y="145" width="225" height="170" rx="4" fill="#22ff55" class="monitor-glow"/>

    <!-- Scrolling code lines on Monitor 1 -->
    <g clip-path="url(#screen-1-clip)">
      <g class="code-scroll-1">
        <!-- Code block 1 -->
        <rect x="158" y="155" width="60" height="3" rx="1" fill="#4ade80" opacity="0.9"/>
        <rect x="225" y="155" width="35" height="3" rx="1" fill="#22c55e" opacity="0.6"/>
        <rect x="158" y="164" width="45" height="3" rx="1" fill="#86efac" opacity="0.5"/>
        <rect x="210" y="164" width="80" height="3" rx="1" fill="#4ade80" opacity="0.8"/>
        <rect x="170" y="173" width="90" height="3" rx="1" fill="#22c55e" opacity="0.7"/>
        <rect x="158" y="182" width="30" height="3" rx="1" fill="#bbf7d0" opacity="0.4"/>
        <rect x="195" y="182" width="55" height="3" rx="1" fill="#4ade80" opacity="0.9"/>
        <rect x="170" y="191" width="70" height="3" rx="1" fill="#22c55e" opacity="0.6"/>
        <rect x="248" y="191" width="25" height="3" rx="1" fill="#86efac" opacity="0.5"/>
        <rect x="158" y="200" width="100" height="3" rx="1" fill="#4ade80" opacity="0.8"/>
        <rect x="170" y="209" width="40" height="3" rx="1" fill="#22c55e" opacity="0.6"/>
        <rect x="218" y="209" width="60" height="3" rx="1" fill="#bbf7d0" opacity="0.4"/>
        <rect x="158" y="218" width="55" height="3" rx="1" fill="#4ade80" opacity="0.9"/>
        <rect x="220" y="218" width="45" height="3" rx="1" fill="#86efac" opacity="0.5"/>
        <rect x="170" y="227" width="85" height="3" rx="1" fill="#22c55e" opacity="0.7"/>
        <rect x="158" y="236" width="38" height="3" rx="1" fill="#4ade80" opacity="0.8"/>
        <rect x="205" y="236" width="70" height="3" rx="1" fill="#bbf7d0" opacity="0.4"/>
        <rect x="170" y="245" width="50" height="3" rx="1" fill="#22c55e" opacity="0.6"/>
        <rect x="228" y="245" width="35" height="3" rx="1" fill="#4ade80" opacity="0.9"/>
        <rect x="158" y="254" width="75" height="3" rx="1" fill="#86efac" opacity="0.5"/>
        <rect x="158" y="263" width="42" height="3" rx="1" fill="#4ade80" opacity="0.8"/>
        <rect x="208" y="263" width="55" height="3" rx="1" fill="#22c55e" opacity="0.7"/>
        <!-- Duplicate block for seamless loop -->
        <rect x="158" y="275" width="60" height="3" rx="1" fill="#4ade80" opacity="0.9"/>
        <rect x="225" y="275" width="35" height="3" rx="1" fill="#22c55e" opacity="0.6"/>
        <rect x="158" y="284" width="45" height="3" rx="1" fill="#86efac" opacity="0.5"/>
        <rect x="210" y="284" width="80" height="3" rx="1" fill="#4ade80" opacity="0.8"/>
        <rect x="170" y="293" width="90" height="3" rx="1" fill="#22c55e" opacity="0.7"/>
        <rect x="158" y="302" width="30" height="3" rx="1" fill="#bbf7d0" opacity="0.4"/>
        <rect x="195" y="302" width="55" height="3" rx="1" fill="#4ade80" opacity="0.9"/>
        <rect x="170" y="311" width="70" height="3" rx="1" fill="#22c55e" opacity="0.6"/>
        <rect x="248" y="311" width="25" height="3" rx="1" fill="#86efac" opacity="0.5"/>
        <rect x="158" y="320" width="100" height="3" rx="1" fill="#4ade80" opacity="0.8"/>
      </g>
    </g>

    <!-- Line numbers gutter -->
    <rect x="148" y="145" width="8" height="170" fill="#0f1520"/>
    <text x="152" y="159" font-family="monospace" font-size="5" fill="#4ade80" opacity="0.3">1</text>
    <text x="152" y="168" font-family="monospace" font-size="5" fill="#4ade80" opacity="0.3">2</text>
    <text x="152" y="177" font-family="monospace" font-size="5" fill="#4ade80" opacity="0.3">3</text>
    <text x="152" y="186" font-family="monospace" font-size="5" fill="#4ade80" opacity="0.3">4</text>
    <text x="152" y="195" font-family="monospace" font-size="5" fill="#4ade80" opacity="0.3">5</text>

    <!-- Blinking cursor -->
    <rect x="285" y="155" width="2" height="8" fill="#4ade80" class="cursor"/>

    <!-- Monitor status LED -->
    <circle cx="260" cy="322" r="2" fill="#4ade80" opacity="0.6"/>
  </g>

  <!-- ===== MONITOR 2 (RIGHT - SLIGHTLY SMALLER) ===== -->
  <g>
    <!-- Monitor stand -->
    <rect x="485" y="338" width="14" height="82" fill="#2a2d42"/>
    <rect x="468" y="412" width="48" height="7" rx="3" fill="#2a2d42"/>

    <!-- Monitor body -->
    <rect x="390" y="163" width="210" height="160" rx="8" fill="#1e2030"/>
    <rect x="390" y="163" width="210" height="4" rx="2" fill="#2e3150"/>

    <!-- Screen -->
    <rect x="398" y="170" width="195" height="145" rx="4" fill="#0c1018"/>

    <!-- Screen glow overlay -->
    <rect x="398" y="170" width="195" height="145" rx="4" fill="#22ff55" class="monitor-glow-2"/>

    <!-- Scrolling code lines on Monitor 2 -->
    <g clip-path="url(#screen-2-clip)">
      <g class="code-scroll-2">
        <rect x="408" y="180" width="50" height="3" rx="1" fill="#4ade80" opacity="0.8"/>
        <rect x="465" y="180" width="30" height="3" rx="1" fill="#22c55e" opacity="0.5"/>
        <rect x="420" y="189" width="75" height="3" rx="1" fill="#86efac" opacity="0.6"/>
        <rect x="408" y="198" width="40" height="3" rx="1" fill="#4ade80" opacity="0.9"/>
        <rect x="455" y="198" width="55" height="3" rx="1" fill="#22c55e" opacity="0.6"/>
        <rect x="420" y="207" width="60" height="3" rx="1" fill="#bbf7d0" opacity="0.4"/>
        <rect x="408" y="216" width="85" height="3" rx="1" fill="#4ade80" opacity="0.7"/>
        <rect x="420" y="225" width="45" height="3" rx="1" fill="#22c55e" opacity="0.8"/>
        <rect x="472" y="225" width="35" height="3" rx="1" fill="#86efac" opacity="0.5"/>
        <rect x="408" y="234" width="65" height="3" rx="1" fill="#4ade80" opacity="0.9"/>
        <rect x="420" y="243" width="50" height="3" rx="1" fill="#22c55e" opacity="0.6"/>
        <rect x="478" y="243" width="28" height="3" rx="1" fill="#bbf7d0" opacity="0.4"/>
        <rect x="408" y="252" width="38" height="3" rx="1" fill="#86efac" opacity="0.7"/>
        <rect x="455" y="252" width="50" height="3" rx="1" fill="#4ade80" opacity="0.8"/>
        <!-- Duplicate for seamless loop -->
        <rect x="408" y="270" width="50" height="3" rx="1" fill="#4ade80" opacity="0.8"/>
        <rect x="465" y="270" width="30" height="3" rx="1" fill="#22c55e" opacity="0.5"/>
        <rect x="420" y="279" width="75" height="3" rx="1" fill="#86efac" opacity="0.6"/>
        <rect x="408" y="288" width="40" height="3" rx="1" fill="#4ade80" opacity="0.9"/>
        <rect x="455" y="288" width="55" height="3" rx="1" fill="#22c55e" opacity="0.6"/>
        <rect x="420" y="297" width="60" height="3" rx="1" fill="#bbf7d0" opacity="0.4"/>
        <rect x="408" y="306" width="85" height="3" rx="1" fill="#4ade80" opacity="0.7"/>
      </g>
    </g>

    <!-- Tab bar at top of screen 2 -->
    <rect x="398" y="170" width="50" height="8" rx="2" fill="#1a2030"/>
    <rect x="452" y="170" width="50" height="8" rx="2" fill="#0c1018"/>
    <circle cx="410" cy="174" r="1.5" fill="#4ade80" opacity="0.5"/>
    <circle cx="464" cy="174" r="1.5" fill="#fbbf24" opacity="0.5"/>

    <!-- Monitor status LED -->
    <circle cx="495" cy="320" r="2" fill="#4ade80" opacity="0.6"/>
  </g>

  <!-- ===== KEYBOARD ===== -->
  <rect x="350" y="405" width="130" height="14" rx="3" fill="#2a2d42"/>
  <!-- Key rows -->
  <rect x="355" y="407" width="5" height="4" rx="1" fill="#363a55"/>
  <rect x="362" y="407" width="5" height="4" rx="1" fill="#363a55"/>
  <rect x="369" y="407" width="5" height="4" rx="1" fill="#363a55"/>
  <rect x="376" y="407" width="5" height="4" rx="1" fill="#363a55"/>
  <rect x="383" y="407" width="5" height="4" rx="1" fill="#363a55"/>
  <rect x="390" y="407" width="5" height="4" rx="1" fill="#363a55"/>
  <rect x="397" y="407" width="5" height="4" rx="1" fill="#363a55"/>
  <rect x="404" y="407" width="5" height="4" rx="1" fill="#363a55"/>
  <rect x="411" y="407" width="5" height="4" rx="1" fill="#363a55"/>
  <rect x="418" y="407" width="5" height="4" rx="1" fill="#363a55"/>
  <rect x="425" y="407" width="5" height="4" rx="1" fill="#363a55"/>
  <rect x="432" y="407" width="5" height="4" rx="1" fill="#363a55"/>
  <rect x="439" y="407" width="5" height="4" rx="1" fill="#363a55"/>
  <rect x="446" y="407" width="5" height="4" rx="1" fill="#363a55"/>
  <rect x="453" y="407" width="5" height="4" rx="1" fill="#363a55"/>
  <rect x="460" y="407" width="5" height="4" rx="1" fill="#363a55"/>
  <rect x="467" y="407" width="5" height="4" rx="1" fill="#363a55"/>
  <rect x="358" y="413" width="5" height="4" rx="1" fill="#363a55"/>
  <rect x="365" y="413" width="5" height="4" rx="1" fill="#363a55"/>
  <rect x="372" y="413" width="5" height="4" rx="1" fill="#363a55"/>
  <rect x="379" y="413" width="5" height="4" rx="1" fill="#363a55"/>
  <rect x="386" y="413" width="5" height="4" rx="1" fill="#363a55"/>
  <rect x="393" y="413" width="5" height="4" rx="1" fill="#363a55"/>
  <rect x="400" y="413" width="5" height="4" rx="1" fill="#363a55"/>
  <rect x="407" y="413" width="5" height="4" rx="1" fill="#363a55"/>
  <rect x="414" y="413" width="5" height="4" rx="1" fill="#363a55"/>
  <rect x="421" y="413" width="5" height="4" rx="1" fill="#363a55"/>
  <rect x="428" y="413" width="5" height="4" rx="1" fill="#363a55"/>
  <rect x="435" y="413" width="18" height="4" rx="1" fill="#363a55"/>
  <rect x="456" y="413" width="5" height="4" rx="1" fill="#363a55"/>
  <rect x="463" y="413" width="5" height="4" rx="1" fill="#363a55"/>

  <!-- Mouse -->
  <ellipse cx="500" cy="414" rx="10" ry="7" fill="#2a2d42"/>
  <line x1="500" y1="408" x2="500" y2="413" stroke="#363a55" stroke-width="1"/>

  <!-- ===== OFFICE CHAIR ===== -->
  <!-- Chair back -->
  <rect x="435" y="290" width="55" height="100" rx="12" fill="#24273c"/>
  <rect x="440" y="295" width="45" height="90" rx="8" fill="#1e2030"/>

  <!-- Chair seat -->
  <rect x="395" y="388" width="80" height="12" rx="5" fill="#24273c"/>

  <!-- Chair stem -->
  <rect x="430" y="400" width="10" height="50" fill="#2a2d42"/>

  <!-- Chair base (5-star) -->
  <line x1="400" y1="452" x2="470" y2="452" stroke="#2a2d42" stroke-width="5" stroke-linecap="round"/>
  <line x1="435" y1="450" x2="415" y2="462" stroke="#2a2d42" stroke-width="5" stroke-linecap="round"/>
  <line x1="435" y1="450" x2="455" y2="462" stroke="#2a2d42" stroke-width="5" stroke-linecap="round"/>
  <!-- Wheels -->
  <circle cx="400" cy="455" r="4" fill="#363a55"/>
  <circle cx="470" cy="455" r="4" fill="#363a55"/>
  <circle cx="415" cy="465" r="4" fill="#363a55"/>
  <circle cx="455" cy="465" r="4" fill="#363a55"/>

  <!-- ===== THE DEVELOPER ===== -->
  <g id="developer">
    <!-- Legs -->
    <rect x="410" y="400" width="22" height="55" rx="5" fill="#1e2030" transform="rotate(-15, 410, 400)"/>
    <!-- Shoes -->
    <ellipse cx="390" cy="448" rx="16" ry="7" fill="#1a1d2e"/>

    <!-- Torso / Blue Hoodie -->
    <path d="M400,280 C400,280 390,310 390,350 L390,395 L470,395 L470,320 C470,300 460,280 440,275 Z" fill="#3b82f6"/>
    <!-- Hoodie pocket line -->
    <path d="M405,355 Q430,365 455,355" fill="none" stroke="#2563eb" stroke-width="1.5" opacity="0.5"/>
    <!-- Hoodie collar -->
    <path d="M415,282 Q428,295 440,282" fill="none" stroke="#2563eb" stroke-width="2"/>
    <!-- Hoodie hood back -->
    <path d="M440,275 Q455,260 448,250 Q440,258 430,262 Z" fill="#3b82f6"/>

    <!-- Arms -->
    <!-- Upper arm (left, reaching to keyboard) -->
    <path class="hand-l" d="M395,310 Q380,350 385,395" fill="none" stroke="#3b82f6" stroke-width="18" stroke-linecap="round"/>
    <!-- Hand/fingers left -->
    <circle class="hand-l" cx="385" cy="398" r="7" fill="#d4a574"/>

    <!-- Upper arm (right, reaching to keyboard) -->
    <path class="hand-r" d="M455,315 Q445,355 435,395" fill="none" stroke="#3b82f6" stroke-width="16" stroke-linecap="round"/>
    <!-- Hand/fingers right -->
    <circle class="hand-r" cx="435" cy="398" r="7" fill="#d4a574"/>

    <!-- Finger details left -->
    <rect class="hand-l" x="378" y="396" width="4" height="6" rx="2" fill="#d4a574"/>
    <rect class="hand-l" x="383" y="395" width="4" height="7" rx="2" fill="#d4a574"/>
    <rect class="hand-l" x="388" y="396" width="4" height="6" rx="2" fill="#d4a574"/>

    <!-- Finger details right -->
    <rect class="hand-r" x="428" y="396" width="4" height="6" rx="2" fill="#d4a574"/>
    <rect class="hand-r" x="433" y="395" width="4" height="7" rx="2" fill="#d4a574"/>
    <rect class="hand-r" x="438" y="396" width="4" height="6" rx="2" fill="#d4a574"/>

    <!-- ===== HEAD (with bob animation) ===== -->
    <g class="head-group">
      <!-- Neck -->
      <rect x="422" y="258" width="14" height="22" fill="#d4a574"/>

      <!-- Head shape -->
      <ellipse cx="432" cy="245" rx="28" ry="32" fill="#d4a574"/>

      <!-- Hair (short dark, side profile facing right) -->
      <path d="M404,240 Q404,208 432,205 Q460,208 462,225 Q462,235 458,240 Q455,230 450,225 Q440,218 425,220 Q412,222 408,235 Z" fill="#1a1d2e"/>
      <!-- Hair side detail -->
      <path d="M404,240 Q402,230 408,222" fill="none" stroke="#1a1d2e" stroke-width="5" stroke-linecap="round"/>
      <!-- Hair top volume -->
      <path d="M415,210 Q432,200 450,210" fill="#1a1d2e" stroke="#1a1d2e" stroke-width="3"/>

      <!-- Ear -->
      <ellipse cx="405" cy="248" rx="5" ry="7" fill="#c4956a"/>

      <!-- Eye (side profile - one eye visible facing right) -->
      <ellipse cx="448" cy="242" rx="4" ry="3.5" fill="#ffffff"/>
      <circle cx="450" cy="242" r="2.5" fill="#1a1d2e"/>
      <circle cx="451" cy="241" r="0.8" fill="#ffffff"/>

      <!-- Eyebrow -->
      <path d="M444,235 Q450,232 455,234" fill="none" stroke="#1a1d2e" stroke-width="2" stroke-linecap="round"/>

      <!-- Nose -->
      <path d="M458,247 Q462,252 458,256" fill="none" stroke="#c4956a" stroke-width="2" stroke-linecap="round"/>

      <!-- Mouth (slight smile) -->
      <path d="M448,262 Q453,265 458,263" fill="none" stroke="#b8845e" stroke-width="1.5" stroke-linecap="round"/>

      <!-- Screen glow on face -->
      <ellipse cx="445" cy="250" rx="20" ry="22" fill="#22ff55" class="face-screen-glow" opacity="0.04"/>
    </g>
  </g>

  <!-- ===== FLOATING GEAR ICON (upper right) ===== -->
  <g class="gear-group">
    <g class="gear-icon">
      <!-- Gear teeth -->
      <circle cx="680" cy="120" r="22" fill="none" stroke="#3b82f6" stroke-width="8"/>
      <!-- Gear tooth nubs -->
      <rect x="674" y="92" width="12" height="10" rx="2" fill="#3b82f6"/>
      <rect x="674" y="138" width="12" height="10" rx="2" fill="#3b82f6"/>
      <rect x="652" y="114" width="10" height="12" rx="2" fill="#3b82f6"/>
      <rect x="698" y="114" width="10" height="12" rx="2" fill="#3b82f6"/>
      <!-- Diagonal teeth -->
      <rect x="656" y="96" width="10" height="10" rx="2" fill="#3b82f6" transform="rotate(45, 661, 101)"/>
      <rect x="694" y="96" width="10" height="10" rx="2" fill="#3b82f6" transform="rotate(45, 699, 101)"/>
      <rect x="656" y="134" width="10" height="10" rx="2" fill="#3b82f6" transform="rotate(45, 661, 139)"/>
      <rect x="694" y="134" width="10" height="10" rx="2" fill="#3b82f6" transform="rotate(45, 699, 139)"/>
      <!-- Gear center hole -->
      <circle cx="680" cy="120" r="8" fill="#1a1d2e"/>
    </g>
  </g>

  <!-- ===== SMALL DECORATIVE ELEMENTS ===== -->
  <!-- Coffee mug on desk -->
  <rect x="310" y="398" width="18" height="22" rx="3" fill="#363a55"/>
  <rect x="310" y="398" width="18" height="5" rx="2" fill="#3b82f6"/>
  <path d="M328,404 Q334,407 328,412" fill="none" stroke="#363a55" stroke-width="2" stroke-linecap="round"/>

  <!-- Small plant pot -->
  <rect x="140" y="398" width="20" height="20" rx="2" fill="#363a55"/>
  <circle cx="150" cy="395" r="10" fill="#22c55e" opacity="0.7"/>
  <circle cx="145" cy="390" r="6" fill="#4ade80" opacity="0.6"/>
  <circle cx="156" cy="388" r="7" fill="#22c55e" opacity="0.8"/>

  <!-- Subtle ambient particles -->
  <circle cx="120" cy="200" r="1.5" fill="#3b82f6" opacity="0.15"/>
  <circle cx="650" cy="250" r="1" fill="#4ade80" opacity="0.1"/>
  <circle cx="700" cy="350" r="1.2" fill="#3b82f6" opacity="0.12"/>
  <circle cx="80" cy="350" r="0.8" fill="#4ade80" opacity="0.08"/>
  <circle cx="730" cy="180" r="1" fill="#3b82f6" opacity="0.1"/>
</svg>
